<svg width="466" height="268" viewBox="0 0 466 268" fill="none" xmlns="http://www.w3.org/2000/svg">
<rect width="466" height="268" rx="24" fill="#16194F"/>
<mask id="mask0_2046_14" style="mask-type:alpha" maskUnits="userSpaceOnUse" x="0" y="0" width="466" height="268">
<rect width="466" height="268" rx="24" fill="#16194F"/>
</mask>
<g mask="url(#mask0_2046_14)">
<path d="M360.56 -55.2031C383.194 -77.7577 419.806 -77.7577 442.44 -55.2031L456.03 -41.6613C465.288 -32.4358 477.39 -26.6076 490.375 -25.1215L509.435 -22.94C541.181 -19.3067 564.009 9.31826 560.487 41.0767L558.372 60.1446C556.932 73.1347 559.921 86.2305 566.855 97.3091L577.033 113.571C593.986 140.656 585.839 176.351 558.813 193.399L542.587 203.634C531.533 210.607 523.158 221.109 518.819 233.438L512.451 251.535C501.845 281.676 468.858 297.562 438.679 287.062L420.56 280.757C408.216 276.462 394.784 276.462 382.44 280.757L364.32 287.062C334.142 297.562 301.155 281.676 290.549 251.535L284.181 233.438C279.842 221.109 271.467 210.607 260.413 203.634L244.187 193.399C217.161 176.351 209.014 140.657 225.967 113.571L236.145 97.3092C243.079 86.2306 246.068 73.1347 244.628 60.1446L242.513 41.0767C238.991 9.3183 261.819 -19.3067 293.565 -22.94L312.625 -25.1215C325.61 -26.6076 337.712 -32.4358 346.97 -41.6612L360.56 -55.2031Z" fill="#9982E9"/>
<path d="M124.56 -161.203C147.194 -183.758 183.806 -183.758 206.44 -161.203L220.03 -147.661C229.288 -138.436 241.39 -132.608 254.375 -131.121L273.435 -128.94C305.181 -125.307 328.009 -96.6817 324.487 -64.9233L322.372 -45.8554C320.932 -32.8653 323.921 -19.7695 330.855 -8.69086L341.033 7.57124C357.986 34.6565 349.839 70.3513 322.813 87.3988L306.587 97.6342C295.533 104.607 287.158 115.109 282.819 127.438L276.451 145.535C265.845 175.676 232.858 191.562 202.679 181.062L184.56 174.757C172.216 170.462 158.784 170.462 146.44 174.757L128.32 181.062C98.142 191.562 65.1551 175.676 54.5488 145.535L48.1807 127.438C43.8424 115.109 35.4673 104.607 24.4131 97.6342L8.18682 87.3988C-18.8388 70.3513 -26.9859 34.6565 -10.0333 7.57128L0.145113 -8.69084C7.0792 -19.7694 10.0683 -32.8653 8.62769 -45.8554L6.51311 -64.9233C2.99119 -96.6817 25.8188 -125.307 57.5647 -128.94L76.6251 -131.121C89.6101 -132.608 101.712 -138.436 110.97 -147.661L124.56 -161.203Z" fill="#DFE3F8"/>
<path d="M136.559 115.777C162.51 89.9161 204.49 89.9161 230.441 115.777L246.022 131.303C256.637 141.881 270.513 148.563 285.401 150.267L307.256 152.769C343.655 156.934 369.828 189.755 365.79 226.168L363.365 248.031C361.714 262.925 365.141 277.94 373.091 290.643L384.762 309.289C404.199 340.344 394.858 381.27 363.871 400.817L345.266 412.552C332.592 420.547 322.989 432.589 318.015 446.724L310.714 467.474C298.553 502.033 260.731 520.247 226.129 508.208L205.354 500.979C191.201 496.054 175.799 496.054 161.646 500.979L140.871 508.208C106.269 520.247 68.4474 502.033 56.2865 467.474L48.985 446.724C44.0108 432.589 34.4082 420.547 21.7337 412.552L3.12905 400.817C-27.8577 381.27 -37.199 340.344 -17.7616 309.289L-6.09129 290.643C1.85913 277.94 5.28628 262.925 3.63458 248.031L1.21006 226.168C-2.82807 189.755 23.3455 156.934 59.7444 152.769L81.5985 150.267C96.4867 148.563 110.363 141.881 120.978 131.303L136.559 115.777Z" fill="#16194F"/>
<mask id="mask1_2046_14" style="mask-type:alpha" maskUnits="userSpaceOnUse" x="-19" y="-179" width="369" height="364">
<path d="M124.56 -161.203C147.194 -183.758 183.806 -183.758 206.44 -161.203L220.03 -147.661C229.288 -138.436 241.39 -132.608 254.375 -131.121L273.435 -128.94C305.181 -125.307 328.009 -96.6817 324.487 -64.9233L322.372 -45.8554C320.932 -32.8653 323.921 -19.7695 330.855 -8.69086L341.033 7.57124C357.986 34.6565 349.839 70.3513 322.813 87.3988L306.587 97.6342C295.533 104.607 287.158 115.109 282.819 127.438L276.451 145.535C265.845 175.676 232.858 191.562 202.679 181.062L184.56 174.757C172.216 170.462 158.784 170.462 146.44 174.757L128.32 181.062C98.142 191.562 65.1551 175.676 54.5488 145.535L48.1807 127.438C43.8424 115.109 35.4673 104.607 24.4131 97.6342L8.18682 87.3988C-18.8388 70.3513 -26.9859 34.6565 -10.0333 7.57128L0.145113 -8.69084C7.0792 -19.7694 10.0683 -32.8653 8.62769 -45.8554L6.51311 -64.9233C2.99119 -96.6817 25.8188 -125.307 57.5647 -128.94L76.6251 -131.121C89.6101 -132.608 101.712 -138.436 110.97 -147.661L124.56 -161.203Z" fill="#CAC7FF"/>
</mask>
<g mask="url(#mask1_2046_14)">
<path d="M136.559 115.777C162.51 89.9161 204.49 89.9161 230.441 115.777L246.022 131.303C256.637 141.881 270.513 148.563 285.401 150.267L307.256 152.769C343.655 156.934 369.828 189.755 365.79 226.168L363.365 248.031C361.714 262.925 365.141 277.94 373.091 290.643L384.762 309.289C404.199 340.344 394.858 381.27 363.871 400.817L345.266 412.552C332.592 420.547 322.989 432.589 318.015 446.724L310.714 467.474C298.553 502.033 260.731 520.247 226.129 508.208L205.354 500.979C191.201 496.054 175.799 496.054 161.646 500.979L140.871 508.208C106.269 520.247 68.4474 502.033 56.2865 467.474L48.985 446.724C44.0108 432.589 34.4082 420.547 21.7337 412.552L3.12905 400.817C-27.8577 381.27 -37.199 340.344 -17.7616 309.289L-6.09129 290.643C1.85913 277.94 5.28628 262.925 3.63458 248.031L1.21006 226.168C-2.82807 189.755 23.3455 156.934 59.7444 152.769L81.5985 150.267C96.4867 148.563 110.363 141.881 120.978 131.303L136.559 115.777Z" fill="#F44E77"/>
</g>
</g>
<circle opacity="0.75" cx="408.5" cy="210.5" r="17.5" fill="white"/>
<circle cx="390.5" cy="210.5" r="17.5" fill="#F44E77"/>
</svg>
